<svg width="376" height="66" viewBox="0 0 376 66" fill="none" xmlns="http://www.w3.org/2000/svg">
<rect width="376" height="66" rx="33" fill="#FAFAFA"/>
<circle cx="342" cy="33" r="28" fill="#7EB693"/>
<path d="M353.678 40.8921L348.918 36.1315C350.064 34.6057 350.682 32.7485 350.68 30.8402C350.68 25.9657 346.715 22 341.84 22C336.966 22 333 25.9657 333 30.8402C333 35.7146 336.966 39.6803 341.84 39.6803C343.748 39.6824 345.606 39.0637 347.132 37.9175L351.892 42.6781C352.133 42.8936 352.447 43.0085 352.77 42.9995C353.094 42.9905 353.401 42.8581 353.63 42.6295C353.858 42.401 353.99 42.0936 354 41.7705C354.009 41.4474 353.894 41.1331 353.678 40.8921ZM335.526 30.8402C335.526 29.5913 335.896 28.3705 336.59 27.3321C337.284 26.2937 338.27 25.4843 339.424 25.0064C340.578 24.5285 341.847 24.4034 343.072 24.6471C344.297 24.8907 345.422 25.4921 346.305 26.3752C347.188 27.2583 347.79 28.3834 348.033 29.6083C348.277 30.8332 348.152 32.1028 347.674 33.2566C347.196 34.4104 346.387 35.3966 345.348 36.0904C344.31 36.7842 343.089 37.1546 341.84 37.1546C340.166 37.1526 338.561 36.4866 337.377 35.3029C336.194 34.1192 335.528 32.5142 335.526 30.8402Z" fill="#FAFAFA"/>
</svg>
